<?xml version="1.0" encoding="UTF-8" standalone="no"?>
<!DOCTYPE svg PUBLIC "-//W3C//DTD SVG 1.1//EN"
 "http://www.w3.org/Graphics/SVG/1.1/DTD/svg11.dtd">
<!-- Generated by graphviz version 2.38.0 (20140413.2041)
 -->
<!-- Title: %3 Pages: 1 -->
<svg width="62pt" height="116pt"
 viewBox="0.00 0.00 62.00 116.00" xmlns="http://www.w3.org/2000/svg" xmlns:xlink="http://www.w3.org/1999/xlink">
<g id="graph0" class="graph" transform="scale(1 1) rotate(0) translate(4 112)">
<title>%3</title>
<polygon fill="white" stroke="none" points="-4,4 -4,-112 58,-112 58,4 -4,4"/>
<!-- TetR -->
<g id="node1" class="node"><title>TetR</title>
<polygon fill="none" stroke="black" points="42,-102 0,-102 0,-78 42,-78 54,-90 42,-102"/>
<text text-anchor="middle" x="27" y="-86.3" font-family="Times,serif" font-size="14.00">TetR</text>
</g>
<!-- LacI -->
<g id="node2" class="node"><title>LacI</title>
<polygon fill="none" stroke="black" points="42,-30 0,-30 0,-6 42,-6 54,-18 42,-30"/>
<text text-anchor="middle" x="27" y="-14.3" font-family="Times,serif" font-size="14.00">LacI</text>
</g>
<!-- TetR&#45;&gt;LacI -->
<g id="edge1" class="edge"><title>TetR&#45;&gt;LacI</title>
<path fill="none" stroke="black" d="M21.0843,-71.6966C20.1312,-62.4569 19.9947,-50.9842 20.6749,-41.105"/>
<polygon fill="black" stroke="black" points="16.0376,-36.6721 26.0009,-37.5292 25.8294,-39.5219 15.8662,-38.6647 16.0376,-36.6721"/>
<polyline fill="none" stroke="black" points="21.105,-36.1043 20.6764,-41.0859 "/>
</g>
<!-- LacI&#45;&gt;TetR -->
<g id="edge2" class="edge"><title>LacI&#45;&gt;TetR</title>
<path fill="none" stroke="black" d="M32.895,-36.1043C33.8599,-45.3118 34.0081,-56.7796 33.3397,-66.6816"/>
<polygon fill="black" stroke="black" points="37.9822,-71.1215 28.0178,-70.2789 28.1863,-68.286 38.1507,-69.1286 37.9822,-71.1215"/>
<polyline fill="none" stroke="black" points="32.9157,-71.6966 33.337,-66.7144 "/>
</g>
</g>
</svg>